<?xml version="1.0" encoding="UTF-8"?>
<svg id="Camada_2" xmlns="http://www.w3.org/2000/svg" width="108" height="108" viewBox="0 0 108 108">
  <defs>
    <style>
      .cls-1 {
        fill: #fff;
      }

      .cls-2 {
        fill: #5594ad;
      }

      .cls-3 {
        fill: #ddaf00;
      }

      .cls-4 {
        fill: #312783;
      }
    </style>
  </defs>
  <g id="Camada_1-2" data-name="Camada_1">
    <g>
      <rect class="cls-1" width="108" height="108" rx="10" ry="10"/>
      <g>
        <path class="cls-3" d="M71.74,37.36c-.02-2.06,0-4.11,0-6.17q0-3.64-3.29-5.18c-.06-.03-.13-.06-.19-.09-.52-.29-.76-.2-.75.45.02,1.35-.02,2.69,0,4.04,0,.64-.17.81-.81.58-.96-.35-1.89-.81-2.93-.91-.23-1.62-.09-3.26-.13-4.88-.01-.6-.15-.97-.82-1.14-1.42-.35-2.85-.53-4.3-.69-.62-.06-.6.32-.61.73,0,1.35-.03,2.7,0,4.04,0,.58-.16.82-.8.78-1.06-.07-2.13-.08-3.19-.03-.63.03-.81-.2-.8-.78.01-1.35-.02-2.7,0-4.04,0-.54-.15-.77-.74-.71-1.38.15-2.73.4-4.09.68-.6.12-.8.43-.79,1.03.03,1.6,0,3.19,0,4.79h0c-.96.56-2.08.7-3.07,1.15-.62.28-.82.11-.81-.55.03-1.35.02-2.7,0-4.04,0-.34.03-.85-.54-.61-1.24.53-2.42,1.18-3.52,1.97-.23.16-.27.41-.27.66-.02,3.09-.03,6.17-.05,9.26,0,.5.16.64.64.4,2.43-1.26,5.04-2.07,7.65-2.86,1.5-.22,3-.46,4.5-.65,3.86-.47,7.68-.05,11.48.67,2.55.64,5.01,1.53,7.35,2.73.88.45.91.08.9-.63Z"/>
        <path class="cls-4" d="M70.48,39.1c-2.03-.92-4.07-1.8-6.28-2.2-5.5-1.37-10.99-1.35-16.47.07-2.01.34-3.89,1.07-5.75,1.88-1.78.78-1.79.77-.7,2.36.27.4.49.81,1.09.53,1.94-.91,4-1.43,6.05-2,0,0,0,0,0,0,1.26-.17,2.53-.39,3.8-.5,3.97-.36,7.86.16,11.7,1.12.96.35,1.91.73,2.89,1.03.82.25,1.59,1.22,2.37.78.69-.4,1.01-1.4,1.54-2.11.35-.47.26-.73-.24-.96Z"/>
        <path class="cls-2" d="M70.73,61.72c-.55-6.07-1.16-12.13-1.73-18.2-.04-.46-.25-.68-.66-.84-1.29-.5-2.57-1.02-3.93-1.27-1.17-.43-2.41-.61-3.63-.79-3.06-.43-6.13-.5-9.21-.05h0c-1.47.02-2.89.35-4.26.85-1.57.32-3.05.89-4.49,1.61-.58.29-.8.66-.86,1.31-.67,7.42-1.38,14.84-2.07,22.26-.21,2.3-.41,4.6-.61,6.89-.05.53,0,.9.71.8,2.84-.41,5.68-.86,8.42-1.73,1.82-.29,3.58-.84,5.32-1.46,3.36-.97,6.6-2.27,9.8-3.67,1.86-.6,3.56-1.56,5.31-2.41,2.06-1.01,2.12-1.02,1.91-3.3ZM58.7,60.88c-.02,1.32-.41,1.69-1.74,1.73-1.25.04-2.49,0-3.74.02-.15-.1-.31-.2-.47-.29-.44-.45-.43-1.02-.43-1.59,0-2.09.08-4.18-.02-6.27-.14-2.74.63-5.02,2.86-6.71,0,0,0,0,.01,0,2.51.8,3.41,2.76,3.52,5.14.12,2.65.05,5.31.02,7.96Z"/>
        <path class="cls-3" d="M92.04,35.56c-2.36-2.94-5.53-4.68-9.16-5.62-.03.02-.07.04-.11.05.04-.02.07-.03.11-.05-2.36-.4-4.6-1.5-7.07-1.16,2.11.39,4.12,1.14,6.21,1.58h0c1.47.69,2.98,1.31,4.41,2.08,3.25,1.75,5.81,4.16,6.96,7.8.29.92.45,1.87.67,2.81.31-2.77-.29-5.33-2.01-7.48Z"/>
        <path class="cls-4" d="M100.64,34.41c-2.23-3.08-5.3-5.04-8.8-6.41-2.78-1.25-5.74-1.88-8.73-2.36-.12-.08-.22-.12-.29-.09-.77-.23-1.56-.34-2.37-.14.76.13,1.53.26,2.29.39,0,0,0,0,0,0h0c.68.17,1.36.35,2.04.5,2.17.49,4.11,1.55,6.15,2.38,0,0,0,0,0,0,1.8,1.18,3.66,2.29,5.02,4.03,2.84,3.64,2.99,7.65,1.6,11.86,0,0,0,0,0,0-.76,2.27-2.08,4.22-3.41,6.18,0,0,0,0,0,0-2.09,2.66-4.57,4.95-7.03,7.26-2.12,1.57-4.24,3.14-6.36,4.71-2.57,1.49-5.14,2.97-7.71,4.46-3.3,1.57-6.61,3.09-9.98,4.5-2.21.77-4.41,1.55-6.62,2.32-1.45.24-2.83.72-4.23,1.12-2.34.5-4.69.99-7.03,1.49-1.85.28-3.7.55-5.56.83h0c-.93.08-1.85.17-2.78.25h0c-2.56.06-5.11.11-7.67.17,0,0,0,0,0,0-3.67-.26-7.31-.71-10.87-1.7-3.64-1.19-6.93-2.94-9.57-5.79-2.26-2.82-3.31-6.03-3.02-9.67-1.43,2.56-.68,7.96,1.44,11.04,0,0,0,0,0,0,2.48,3.95,6.24,6.13,10.5,7.63h0c4.26,1.6,8.71,2.16,13.23,2.33,2.66.32,5.3.14,7.94-.18,0,0,0,0,0,0,.99-.03,1.98.06,2.95-.22,0,0,0,0,0,0,2.21-.21,4.42-.39,6.56-.99.1,0,.2-.03.29-.08,2.52-.39,5.02-.88,7.43-1.71,1.03-.16,2.01-.48,2.98-.85,1.76-.41,3.46-.99,5.11-1.71,3.83-1.24,7.52-2.81,11.05-4.73,2.21-.85,4.19-2.14,6.2-3.37,3.53-2,6.83-4.33,9.86-7.03,0,0,0,0,0,0,2.29-1.82,4.35-3.86,6.11-6.19,1.45-1.5,2.53-3.24,3.41-5.12h0c.62-.63.81-1.49,1.1-2.27,1.63-4.47,1.65-8.81-1.26-12.83Z"/>
        <path class="cls-3" d="M34.28,33.51s0,0,0,0c-2.34.92-4.62,1.95-6.77,3.26-1.73.82-3.33,1.87-4.92,2.91-3.24,2.12-6.22,4.54-8.78,7.46h0c-1.87,2.06-3.45,4.32-4.5,6.9-2.37,5.83-.94,11.22,3.92,14.88.28.21.52.63,1,.45h0,0c1.34,1.45,3.17,1.93,4.94,2.56-1.61-.83-3.07-1.86-4.47-2.99h0s0,0,0,0c-.11-.14-.22-.28-.34-.4-4.18-4.06-4.64-8.82-2.59-14.03.75-1.92,1.85-3.65,3-5.34,2.99-3.83,6.54-7.06,10.5-9.85.98-.69,1.95-1.4,2.93-2.11,2.1-1.16,4.21-2.32,6.31-3.49.71-.29,1.46-.51,2.02-1.08-.81.13-1.53.49-2.23.87Z"/>
        <path class="cls-2" d="M96.82,57.86c-.31.49-.62.97-.93,1.46h0c-1.87,2.46-4.15,4.51-6.41,6.6h0c-1.42,1.07-2.83,2.14-4.25,3.21h0s0,0,0,0c-2.75,1.87-5.68,3.45-8.58,5.07-1.64.74-3.28,1.5-4.93,2.22-3.37,1.48-6.87,2.62-10.36,3.81-2.84.72-5.69,1.44-8.53,2.16h0c-2.69.41-5.36.99-8.08,1.23-3.67.32-7.34.57-11.02.12.25.14.51.24.78.28,4.86.72,9.74.79,14.62.4,1.68-.14,3.39-.24,5.03-.75,2.28-.29,4.51-.78,6.7-1.46.04,0,.08-.02.12-.04,5.17-1.38,10.15-3.25,14.87-5.79,3.56-1.79,6.94-3.84,10.02-6.38,1.76-1.14,3.3-2.54,4.77-4.04,2.19-1.96,4-4.25,5.64-6.68.26-.42.62-.8.53-1.41Z"/>
      </g>
    </g>
  </g>
</svg>